<?xml version="1.0" encoding="UTF-8"?>
<svg version="1.1" xmlns="http://www.w3.org/2000/svg" width="500" height="150">
<path d="M0 0 C2.5 2.3125 2.5 2.3125 4 5 C4 6.32 4 7.64 4 9 C1 8 1 8 -0.6875 5.875 C-3.0066338 3.61675805 -3.0066338 3.61675805 -6.875 3.8125 C-10.92912027 4.62332405 -13.06948867 6.1715385 -15.55078125 9.44140625 C-20.00032933 17.29707739 -23.00797822 26.03679141 -24 35 C-23.443125 34.484375 -22.88625 33.96875 -22.3125 33.4375 C-20 32 -20 32 -17.35546875 32.41015625 C-16.57816406 32.60480469 -15.80085938 32.79945312 -15 33 C-15.19916016 34.08667969 -15.19916016 34.08667969 -15.40234375 35.1953125 C-16.30281709 40.12491105 -17.19781966 45.05322123 -18 50 C-10.36298216 46.70219684 -8.16632842 42.43398846 -5 35 C-3.828125 33.33203125 -3.828125 33.33203125 -2 32 C1.13671875 31.48828125 1.13671875 31.48828125 4.6875 31.3125 C5.86699219 31.24675781 7.04648438 31.18101563 8.26171875 31.11328125 C9.61716797 31.05720703 9.61716797 31.05720703 11 31 C10.7834375 31.79664063 10.566875 32.59328125 10.34375 33.4140625 C10.0653125 34.47367188 9.786875 35.53328125 9.5 36.625 C9.2215625 37.66914062 8.943125 38.71328125 8.65625 39.7890625 C8.00881404 42.95687418 7.8838708 45.77741467 8 49 C11.13820872 48.73848261 12.67143944 48.30734236 14.99609375 46.1328125 C17.83012814 41.70221683 18.66342478 37.15231661 19.8125 32.0625 C25.75017418 7.77201472 25.75017418 7.77201472 35.1796875 0.921875 C39.70997249 -1.37243242 43.52645261 -1.42866833 48.4375 0 C51 2 51 2 51.875 5.6875 C51.91625 6.780625 51.9575 7.87375 52 9 C51.34 9 50.68 9 50 9 C48.9171875 7.7315625 48.9171875 7.7315625 47.8125 6.4375 C45.17879989 3.63985288 45.17879989 3.63985288 41.5 3.875 C35.71931835 5.73307624 33.26224451 9.21490441 30.4375 14.375 C27.29405499 20.94042311 25.68246694 27.95055752 24 35 C24.60328125 34.50886719 25.2065625 34.01773438 25.828125 33.51171875 C28.43436142 31.6976657 29.89296371 31.74108031 33 32 C32.41509121 38.14154225 31.45933748 44.00679849 30 50 C35.64358124 48.04645265 38.14973511 46.49693943 41 41 C42.12467098 38.03319552 43.10706494 35.0440968 44 32 C44.99 32 45.98 32 47 32 C46.38273804 37.67355671 45.72054048 43.33861055 45 49 C49.96378429 47.75905393 52.28296649 46.366661 55 42 C55.68255989 39.67126625 56.35050775 37.33817209 57 35 C58.1875 33.125 58.1875 33.125 60 32 C63.6875 31.3125 63.6875 31.3125 67 31 C67.391875 29.9275 67.78375 28.855 68.1875 27.75 C76.72769174 5.1104351 76.72769174 5.1104351 84 1 C87.39271621 0.51610298 90.62482559 0.36500956 94 1 C95.8046875 2.46484375 95.8046875 2.46484375 97 4 C97 4.33 97 4.66 97 5 C95.80375 4.938125 94.6075 4.87625 93.375 4.8125 C89.1757005 4.84212469 86.52772127 5.56979201 83 8 C73.32248144 18.38562967 71.59045565 35.55567989 69 49 C71.31 48.34 73.62 47.68 76 47 C76.20496094 46.16855469 76.40992188 45.33710937 76.62109375 44.48046875 C76.89050781 43.39378906 77.15992188 42.30710938 77.4375 41.1875 C77.70433594 40.10855469 77.97117187 39.02960938 78.24609375 37.91796875 C78.76077412 35.9259157 79.34937175 33.95188476 80 32 C81.98 32.495 81.98 32.495 84 33 C83.01 37.95 82.02 42.9 81 48 C82.32 47.67 83.64 47.34 85 47 C86.33205371 44.60074474 86.33205371 44.60074474 87.1875 41.6875 C87.51105469 40.72199219 87.83460938 39.75648437 88.16796875 38.76171875 C88.84439664 36.51648628 89.46339939 34.28190766 90 32 C91.32 32 92.64 32 94 32 C93.19500136 38.03748977 92.11517502 44.01270113 91 50 C94.54479024 48.58208391 96.59503161 47.62995082 98.6875 44.375 C100.27475184 40.29349528 101.69076916 36.1783963 103 32 C110.75 31.875 110.75 31.875 113 33 C113.33 33.99 113.66 34.98 114 36 C117.34252724 36.07427838 119.8035914 36.06546953 123 35 C122.625 36.9375 122.625 36.9375 122 39 C118.93570224 40.53214888 116.3834358 40.22938548 113 40 C110.0625 38.5 110.0625 38.5 108 37 C104.76736441 41.61805085 103.46964518 46.63214705 102 52 C100 52 98 52 96 52 C95.030625 52.20625 94.06125 52.4125 93.0625 52.625 C89.81926117 53.02213128 88.67666012 52.75012392 86 51 C85.67 51.33 85.34 51.66 85 52 C81.63370749 52.14636054 79.21580438 52.07193479 76 51 C75.443125 51.33 74.88625 51.66 74.3125 52 C70.75684551 53.53758032 67.79847407 52.5604306 64 52 C63.67 52.33 63.34 52.66 63 53 C60.625 53.25 60.625 53.25 58 53 C56.1875 51.5 56.1875 51.5 55 50 C53.9790625 50.4640625 53.9790625 50.4640625 52.9375 50.9375 C49.54478316 52.1646529 46.60710777 52.80324867 43 53 C40.5625 51.5625 40.5625 51.5625 39 50 C38.29875 50.495 37.5975 50.99 36.875 51.5 C33.57896166 53.21967218 31.6663563 53.48884751 28 53 C25.57054439 49.35581659 25.9171219 48.07076636 26.375 43.8125 C26.48585937 42.72582031 26.59671875 41.63914063 26.7109375 40.51953125 C26.80632812 39.68808594 26.90171875 38.85664062 27 38 C22.59560586 42.6424695 20.68089548 46.85038239 19 53 C18.06994141 52.47792969 18.06994141 52.47792969 17.12109375 51.9453125 C16.42113281 51.63335937 15.72117188 51.32140625 15 51 C13.01669827 51.86649466 13.01669827 51.86649466 11 53 C7.21729678 53.36904422 6.26963949 53.17975966 3 51 C2.01 51.66 1.02 52.32 0 53 C-3.1875 52.625 -3.1875 52.625 -6 52 C-6.33 51.01 -6.66 50.02 -7 49 C-8.03125 49.66 -9.0625 50.32 -10.125 51 C-13.54539261 52.95649233 -16.01104188 53.55659881 -20 53 C-22 51 -22 51 -22.1875 47.75 C-22.02059174 44.41183477 -21.6392895 41.27635867 -21 38 C-25.40439414 42.6424695 -27.31910452 46.85038239 -29 53 C-29.99 52.67 -30.98 52.34 -32 52 C-30.8752666 35.82063268 -27.28896303 14.23975407 -14.8125 2.8125 C-10.11686694 -0.99401911 -5.85536119 -1.73186739 0 0 Z M2 34 C-0.23137662 35.00550877 -0.23137662 35.00550877 -2 37 C-2.90987411 39.71413626 -2.90987411 39.71413626 -3.25 42.6875 C-3.47429687 44.17830078 -3.47429687 44.17830078 -3.703125 45.69921875 C-3.80109375 46.45847656 -3.8990625 47.21773437 -4 48 C-2.515 48.99 -2.515 48.99 -1 50 C2.82645947 47.32147837 3.46819646 44.65189384 4.25 40.25 C4.51536311 38.50226363 4.77032494 36.75278332 5 35 C4.01 34.67 3.02 34.34 2 34 Z M60 37 C59.09012589 39.71413626 59.09012589 39.71413626 58.75 42.6875 C58.52570313 44.17830078 58.52570313 44.17830078 58.296875 45.69921875 C58.19890625 46.45847656 58.1009375 47.21773437 58 48 C59.98 48.99 59.98 48.99 62 50 C65.24610824 47.63919401 65.88494295 44.74681084 66.7265625 41.0078125 C67.07076603 38.48037514 66.75808438 36.42587001 66 34 C63.10126378 34 62.08007953 35.02392445 60 37 Z " fill="#030303" transform="translate(137,29)"/>
<path d="M0 0 C2.5 2.3125 2.5 2.3125 4 5 C4 6.32 4 7.64 4 9 C3.34 9 2.68 9 2 9 C1.29875 8.154375 0.5975 7.30875 -0.125 6.4375 C-2.87462599 3.61456405 -2.87462599 3.61456405 -6.9375 3.75 C-10.92723197 4.61082397 -13.10139916 6.2135904 -15.55078125 9.44140625 C-20.00032933 17.29707739 -23.00797822 26.03679141 -24 35 C-23.443125 34.484375 -22.88625 33.96875 -22.3125 33.4375 C-20 32 -20 32 -17.35546875 32.41015625 C-16.57816406 32.60480469 -15.80085938 32.79945312 -15 33 C-15.19916016 34.08667969 -15.19916016 34.08667969 -15.40234375 35.1953125 C-16.30281709 40.12491105 -17.19781966 45.05322123 -18 50 C-11.35732884 46.94240094 -11.35732884 46.94240094 -7.83203125 40.86328125 C-7.49558594 39.69152344 -7.15914063 38.51976562 -6.8125 37.3125 C-6.46832031 36.13300781 -6.12414062 34.95351563 -5.76953125 33.73828125 C-5.38861328 32.38283203 -5.38861328 32.38283203 -5 31 C-2 32 -2 32 -1 34 C-0.01 33.34 0.98 32.68 2 32 C4.96076291 32.35888035 5.84658021 32.84658021 8 35 C8.391875 34.505 8.78375 34.01 9.1875 33.5 C11.55091715 31.54406857 13.01435003 31.75792027 16 32 C17.42907825 36.28723476 15.9081267 39.1911799 14.59375 43.40625 C13.74215429 46.0930411 13.74215429 46.0930411 15 49 C19.31622125 46.83457374 21.00717526 44.80508636 23.125 40.5 C26.49151685 33.73057152 26.49151685 33.73057152 29 32 C32.13671875 31.48828125 32.13671875 31.48828125 35.6875 31.3125 C36.86699219 31.24675781 38.04648437 31.18101563 39.26171875 31.11328125 C40.16535156 31.07589844 41.06898438 31.03851563 42 31 C41.79503906 31.61746094 41.59007812 32.23492187 41.37890625 32.87109375 C39.54784707 38.62710276 38.48550136 43.97978316 38 50 C41.80439733 48.70777003 45.14387927 47.53986815 47.1640625 43.90625 C47.92042406 41.61424528 48.5122582 39.36302491 49 37 C49.226875 35.989375 49.45375 34.97875 49.6875 33.9375 C49.790625 33.298125 49.89375 32.65875 50 32 C51.32 32 52.64 32 54 32 C54.33 32.99 54.66 33.98 55 35 C55.556875 34.484375 56.11375 33.96875 56.6875 33.4375 C59 32 59 32 64 33 C62.68 38.61 61.36 44.22 60 50 C65.63291434 47.55878059 65.63291434 47.55878059 68.375 43.3125 C68.91125 42.219375 69.4475 41.12625 70 40 C70.99 40 71.98 40 73 40 C72.56562648 44.92289989 70.356381 47.48750825 67 51 C64.08827614 53.23232162 63.02469261 53.00246926 59.25 52.625 C58.1775 52.41875 57.105 52.2125 56 52 C56 48 56 44 56 40 C52.46730171 43.90456127 50.36144033 46.80177328 49 52 C47.06403108 52.22211116 45.12610672 52.42722992 43.1875 52.625 C42.10855469 52.74101563 41.02960938 52.85703125 39.91796875 52.9765625 C37 53 37 53 34 51 C33.01 51.66 32.02 52.32 31 53 C27.70555942 52.79409746 25.68889633 52.57408028 23.125 50.4375 C22.568125 49.7259375 22.568125 49.7259375 22 49 C21.484375 49.495 20.96875 49.99 20.4375 50.5 C17.19319983 52.49649241 14.73782666 52.21564385 11 52 C8.44420805 46.46245077 9.37922811 42.61036424 11 37 C6.9964167 41.84710557 4.29029013 45.80660737 3 52 C1.68 51.67 0.36 51.34 -1 51 C-0.855625 50.39671875 -0.71125 49.7934375 -0.5625 49.171875 C-0.2840625 47.97304687 -0.2840625 47.97304687 0 46.75 C0.185625 45.96109375 0.37125 45.1721875 0.5625 44.359375 C1.12154828 41.74443998 1.12154828 41.74443998 1 38 C0.03576974 39.39176632 -0.92111602 40.7886223 -1.875 42.1875 C-2.40867187 42.96480469 -2.94234375 43.74210937 -3.4921875 44.54296875 C-4.98015439 46.9676609 -6.02428078 49.3333499 -7 52 C-7.598125 51.79375 -8.19625 51.5875 -8.8125 51.375 C-11.28450846 50.69328085 -11.28450846 50.69328085 -14 53 C-17.0625 53.25 -17.0625 53.25 -20 53 C-22 51 -22 51 -22.1875 47.75 C-22.02059174 44.41183477 -21.6392895 41.27635867 -21 38 C-25.40439414 42.6424695 -27.31910452 46.85038239 -29 53 C-29.99 53 -30.98 53 -32 53 C-32.33 52.34 -32.66 51.68 -33 51 C-33.804375 51.495 -33.804375 51.495 -34.625 52 C-37.5929092 53.24964598 -39.80799279 53.27756584 -43 53 C-43.66 52.34 -44.32 51.68 -45 51 C-45.99 51.66 -46.98 52.32 -48 53 C-50.79523674 53.34940459 -52.3648354 53.37233787 -54.8125 51.9375 C-56.69930406 48.85903022 -56.34967234 46.55500216 -56 43 C-54.85461731 38.75351316 -53.68268571 34.65883559 -50 32 C-46.86328125 31.48828125 -46.86328125 31.48828125 -43.3125 31.3125 C-41.54326172 31.21388672 -41.54326172 31.21388672 -39.73828125 31.11328125 C-38.38283203 31.05720703 -38.38283203 31.05720703 -37 31 C-37.20496094 31.61746094 -37.40992188 32.23492187 -37.62109375 32.87109375 C-39.45215293 38.62710276 -40.51449864 43.97978316 -41 50 C-39.3603125 49.4121875 -39.3603125 49.4121875 -37.6875 48.8125 C-37.07261719 48.59207031 -36.45773437 48.37164062 -35.82421875 48.14453125 C-30.34297122 44.70554725 -29.68138911 37.38463209 -28.25 31.5625 C-25.11771204 19.55127775 -21.81832813 7.28156701 -11 0 C-7.15921219 -1.2802626 -3.84230519 -1.13645647 0 0 Z M-47 34 C-51.64322514 38.49344368 -51.76182476 42.86698764 -52 49 C-48.06924356 48.42547254 -48.06924356 48.42547254 -45 46 C-44.31822002 43.34280163 -44.31822002 43.34280163 -43.875 40.375 C-43.70742188 39.37210938 -43.53984375 38.36921875 -43.3671875 37.3359375 C-43.24601562 36.56507812 -43.12484375 35.79421875 -43 35 C-44.32 34.67 -45.64 34.34 -47 34 Z M32 34 C27.35677486 38.49344368 27.23817524 42.86698764 27 49 C27.99 49.495 27.99 49.495 29 50 C31.60700354 48.70818409 31.60700354 48.70818409 34 46 C35.03791687 42.37511445 35.5678109 38.74133848 36 35 C34.68 34.67 33.36 34.34 32 34 Z " fill="#050505" transform="translate(358,29)"/>
<path d="M0 0 C2 2 2 2 2.4375 5.3125 C2 9 2 9 -0.125 11.75 C-2.9718696 13.9779849 -5.699916 15.54182335 -9 17 C-0.79278517 26.97366836 9.19816993 38.18881701 22.5859375 40.43359375 C26.78071032 40.55205079 30.2241791 39.94881079 34 38 C33.75 39.875 33.75 39.875 33 42 C28.74531451 44.63252871 24.85827398 44.58595976 20 44 C11.96357978 42.06894651 6.17815675 38.35283047 0 33 C-0.59296875 32.53851563 -1.1859375 32.07703125 -1.796875 31.6015625 C-7.34118447 27.20172058 -11.87271343 21.72766299 -16 16 C-16 15.34 -16 14.68 -16 14 C-15.22914063 13.80664062 -14.45828125 13.61328125 -13.6640625 13.4140625 C-12.15972656 13.02347656 -12.15972656 13.02347656 -10.625 12.625 C-9.62726563 12.36976562 -8.62953125 12.11453125 -7.6015625 11.8515625 C-4.87458985 11.17595681 -4.87458985 11.17595681 -3 9 C-2.83322718 5.41656024 -2.83322718 5.41656024 -3 2 C-6.63 1.34 -10.26 0.68 -14 0 C-14.26167969 1.23878906 -14.52335937 2.47757813 -14.79296875 3.75390625 C-16.08520217 9.54569872 -17.65530176 15.24065443 -19.3125 20.9375 C-19.59544922 21.97712891 -19.87839844 23.01675781 -20.16992188 24.08789062 C-20.60594727 25.57385742 -20.60594727 25.57385742 -21.05078125 27.08984375 C-21.30512939 27.98566162 -21.55947754 28.88147949 -21.8215332 29.80444336 C-23 32 -23 32 -25.62182617 33.30688477 C-26.79902222 33.64997681 -26.79902222 33.64997681 -28 34 C-26.48020523 26.45701858 -24.26246686 19.24753545 -21.875 11.9375 C-21.50246094 10.78572266 -21.12992187 9.63394531 -20.74609375 8.44726562 C-19.83437981 5.63030331 -18.9189396 2.81461174 -18 0 C-23.47058909 2.43019219 -23.47058909 2.43019219 -27 7 C-26.77426109 10.19235272 -26.77426109 10.19235272 -26 13 C-28.86724686 12.42655063 -29.8614515 12.1385485 -32 10 C-31.91534527 6.10588241 -31.50989145 4.4961106 -28.6875 1.75 C-19.58842592 -4.17497847 -9.89916799 -4.39514994 0 0 Z " fill="#030303" transform="translate(297,49)"/>
<path d="M0 0 C0.99 0.66 1.98 1.32 3 2 C3.1875 5.125 3.1875 5.125 3 8 C2.01 8.33 1.02 8.66 0 9 C-0.33 7.02 -0.66 5.04 -1 3 C-3.97 3.66 -6.94 4.32 -10 5 C-10.08873611 9.17059723 -9.83537193 11.1031573 -6.9296875 14.22265625 C-6.10726562 14.97417969 -5.28484375 15.72570313 -4.4375 16.5 C-0.09381243 20.56701958 -0.09381243 20.56701958 0.8125 24.75 C-0.33423218 29.33692874 -2.09663233 31.82439056 -6.125 34.3125 C-11.90338746 35.69428831 -17.75870571 36.05036065 -23 33 C-22.67 30.36 -22.34 27.72 -22 25 C-21.34 25 -20.68 25 -20 25 C-19.67 26.98 -19.34 28.96 -19 31 C-17.58376784 31.05447047 -16.16691809 31.09300508 -14.75 31.125 C-13.56664063 31.15980469 -13.56664063 31.15980469 -12.359375 31.1953125 C-9.7484325 30.97917488 -8.19718505 30.40969838 -6 29 C-4.8138532 26.74153878 -4.8138532 26.74153878 -5 24 C-6.93605986 20.36020746 -9.2139496 17.77403195 -12.25 15.0625 C-14.72467424 12.65709145 -14.98867528 12.05868262 -15.6875 8.4375 C-15 5 -15 5 -13.125 2.0625 C-8.83247161 -0.77056874 -5.02392499 -0.80893707 0 0 Z " fill="#030303" transform="translate(100,47)"/>
<path d="M0 0 C0.99 0.33 1.98 0.66 3 1 C2.67 2.32 2.34 3.64 2 5 C0.68 5 -0.64 5 -2 5 C-1.125 1.125 -1.125 1.125 0 0 Z " fill="#010101" transform="translate(184,50)"/>
</svg>
